# xmcd
#
# Track frame offsets: 
#        150
#        13345
#        28744
#        45926
#        63474
#        88061
#        116602
#        132402
#        146233
#        165474
#        177709
#        200927
#
# Disc length: 2929 seconds
#
# Revision: 0
# Processed by: cddbd v1.5.2PL0 Copyright (c) Steve Scherf et al.
# Submitted via: ExactAudioCopy v1.3
#
DISCID=b60b6f0c
DTITLE=The Skyla Burrell Blues Band - Working Girl Blues
DYEAR=2004
DGENRE=Electric Blues, Chicago Blues
TTITLE0=Back To My Baby
TTITLE1=Are You Kidding Me
TTITLE2=Bad Dream
TTITLE3=Lover Man
TTITLE4=Working Girl Blues
TTITLE5=Before You Go
TTITLE6=Mean Woman
TTITLE7=Gonna Be Mine Tonight
TTITLE8=Love So Strong
TTITLE9=Bad Luck Boogie
TTITLE10=Looking Out For My Future
TTITLE11=Satisfaction Guaranteed
EXTD=
EXTT0=
EXTT1=
EXTT2=
EXTT3=
EXTT4=
EXTT5=
EXTT6=
EXTT7=
EXTT8=
EXTT9=
EXTT10=
EXTT11=
PLAYORDER=
